<?xml version="1.0" encoding="UTF-8"?>
<!DOCTYPE svg PUBLIC "-//W3C//DTD SVG 1.1//EN" "http://www.w3.org/Graphics/SVG/1.1/DTD/svg11.dtd">
<svg version="1.1" xmlns="http://www.w3.org/2000/svg" xmlns:xlink="http://www.w3.org/1999/xlink" x="0" y="0" width="1280" height="1280" viewBox="0, 0, 1280, 1280">
  <g id="Layer_1">
    <path d="M1061.387,178.444 L905.211,555.492 L905.211,628.038 L856.992,628.038 L856.992,326.707 C856.992,306.784 840.781,290.574 820.848,290.574 C800.923,290.574 784.703,306.784 784.703,326.707 L784.703,543.932 L784.68,543.932 C784.529,590.328 746.75,628.003 700.329,628.003 C653.915,628.003 616.122,590.291 615.978,543.905 L615.978,242.347 L664.17,242.347 L664.17,543.634 L664.197,543.634 C664.197,563.559 680.405,579.767 700.329,579.767 C720.261,579.767 736.469,563.559 736.469,543.634 L736.483,543.634 L736.483,326.672 C736.509,280.172 774.339,242.347 820.848,242.347 C867.368,242.347 905.197,280.197 905.197,326.707 L905.211,326.707 L905.211,429.525 L1022.716,145.868 C916.977,63.854 784.192,15 639.974,15 C294.812,15 15,294.873 15,640.01 C15,985.214 294.812,1265 639.974,1265 C985.187,1265 1265,985.214 1265,640.01 C1265,457.208 1186.509,292.737 1061.387,178.444 M615.978,145.85 L664.17,145.85 L664.17,194.051 L615.978,194.051 z M965.671,472.799 L1029.798,627.986 L977.499,627.986 L939.525,535.744 z M182.127,242.347 L338.805,242.347 C385.213,242.347 423.007,280.05 423.156,326.438 L423.156,411.067 L495.469,411.067 L495.469,242.347 L543.672,242.347 L543.672,543.634 L543.7,543.634 C543.7,563.559 559.909,579.767 579.846,579.767 C585.909,579.767 591.635,578.259 596.666,575.599 C601.535,591.32 609.898,605.542 620.836,617.321 C608.689,624.104 594.713,628.003 579.846,628.003 C533.407,628.003 495.618,590.291 495.495,543.905 L495.469,543.905 L495.469,459.275 L423.156,459.275 L423.156,628.003 L374.951,628.003 L374.951,326.707 L374.939,326.707 C374.939,306.775 358.724,290.574 338.805,290.574 L302.633,290.547 L302.633,628.003 L254.429,628.003 L254.429,290.547 L182.127,290.547 z M230.359,736.549 C230.359,743.121 232.128,749.287 235.215,754.618 L338.121,908.99 C346.177,921.921 350.841,937.153 350.841,953.478 C350.841,954.48 350.816,955.403 350.768,956.337 C349.255,1001.539 312.032,1037.836 266.492,1037.836 C219.982,1037.836 182.127,999.986 182.127,953.478 L230.359,953.478 C230.359,973.4 246.567,989.609 266.492,989.609 C286.397,989.609 302.611,973.41 302.625,953.503 L302.625,953.478 C302.625,946.896 300.841,940.73 297.75,935.41 L194.845,781.028 C186.801,768.103 182.127,752.864 182.127,736.549 C182.127,735.544 182.15,734.614 182.202,733.68 C183.715,688.488 220.933,652.182 266.492,652.182 C313,652.182 350.841,690.041 350.841,736.549 L302.625,736.549 C302.625,716.623 286.41,700.415 266.492,700.415 C246.567,700.415 230.359,716.606 230.359,736.521 L230.359,736.549 M700.329,1037.836 C653.915,1037.836 616.122,1000.135 615.978,953.749 L615.978,869.117 L543.672,869.117 L543.672,953.478 L543.7,953.478 C543.7,973.4 559.909,989.609 579.846,989.609 C585.909,989.609 591.635,988.092 596.666,985.433 C601.535,1001.152 609.898,1015.366 620.836,1027.155 C608.689,1033.946 594.713,1037.836 579.846,1037.836 C533.407,1037.836 495.618,1000.135 495.495,953.749 L495.469,953.749 L495.469,869.117 L423.156,869.117 L423.156,1037.836 L374.951,1037.836 L374.959,760.659 L375.012,760.659 L375.012,736.549 C375.012,702.586 359.326,672.227 334.811,652.328 C335.631,652.277 336.471,652.234 337.314,652.22 C337.801,652.207 338.29,652.182 338.805,652.182 C339.856,652.182 340.901,652.22 341.93,652.26 C342.32,652.277 342.724,652.265 343.126,652.302 C387.545,654.553 423.007,691.323 423.156,736.28 L423.156,736.322 L423.156,736.549 L423.156,820.91 L495.469,820.91 L495.469,652.182 L543.672,652.182 L543.672,820.91 L615.978,820.91 L615.978,736.549 C615.978,690.041 653.821,652.182 700.329,652.182 C746.848,652.182 784.68,690.025 784.68,736.533 L784.703,736.533 L784.703,784.812 L784.68,784.812 C784.653,831.293 746.826,869.117 700.329,869.117 L700.23,869.117 L664.17,869.117 L664.17,953.478 L664.197,953.478 C664.197,973.4 680.405,989.609 700.329,989.609 L839.132,989.618 C845.899,1008.712 857.871,1025.342 873.323,1037.836 z M941.364,1037.836 C894.908,1037.836 857.114,1000.082 856.992,953.661 L856.992,652.182 L905.211,652.182 L905.211,953.478 L905.226,953.478 C905.226,973.4 921.434,989.609 941.364,989.609 L985.676,989.618 C980.478,978.712 977.537,966.51 977.512,953.633 L977.512,652.182 L1025.716,652.182 L1025.716,953.478 L1025.741,953.478 C1025.741,973.4 1041.951,989.609 1061.874,989.609 L1097.996,989.618 L1097.996,1037.836 z" fill="#1A1919"/>
    <path d="M700.329,820.899 C720.249,820.899 736.464,804.684 736.464,784.769 L736.483,784.769 L736.483,736.548 L736.464,736.548 C736.464,716.624 720.249,700.416 700.329,700.416 C680.406,700.416 664.197,716.624 664.197,736.548 L664.184,736.548 L664.184,820.911 L700.168,820.911 C700.23,820.911 700.277,820.899 700.329,820.899" fill="#1A1919"/>
  </g>
</svg>
