<?xml version="1.0" encoding="UTF-8" standalone="no"?>
<svg
xmlns="http://www.w3.org/2000/svg"
version="1.0"
width="800" height="800"
id="3-cube.svg">
<g style="stroke:#000000;stroke-width:3;stroke-opacity:1.0;">
<line x1="779.582" y1="400.000" x2="589.791" y2="728.728"/>
<line x1="400.000" y1="400.000" x2="210.209" y2="728.728"/>
<line x1="779.582" y1="400.000" x2="400.000" y2="400.000"/>
<line x1="589.791" y1="728.728" x2="210.209" y2="728.728"/>
<line x1="589.791" y1="71.272" x2="400.000" y2="400.000"/>
<line x1="210.209" y1="71.272" x2="20.418" y2="400.000"/>
<line x1="589.791" y1="71.272" x2="210.209" y2="71.272"/>
<line x1="400.000" y1="400.000" x2="20.418" y2="400.000"/>
<line x1="779.582" y1="400.000" x2="589.791" y2="71.272"/>
<line x1="589.791" y1="728.728" x2="400.000" y2="400.000"/>
<line x1="400.000" y1="400.000" x2="210.209" y2="71.272"/>
<line x1="210.209" y1="728.728" x2="20.418" y2="400.000"/>
</g>
<g style="stroke:#000000;stroke-width:3;fill:#ff0000">
<circle cx="779.582" cy="400.000" r="12"/>
<circle cx="589.791" cy="728.728" r="12"/>
<circle cx="210.209" cy="728.728" r="12"/>
<circle cx="589.791" cy="71.272" r="12"/>
<circle cx="210.209" cy="71.272" r="12"/>
<circle cx="20.418" cy="400.000" r="12"/>
</g>
<g style="stroke:#000000;stroke-width:3;fill:#ff7f00">
<circle cx="400.000" cy="400.000" r="12"/>
</g>
</svg>
